<?xml version="1.0" standalone="no"?>
<!DOCTYPE svg PUBLIC "-//W3C//DTD SVG 20010904//EN"
 "http://www.w3.org/TR/2001/REC-SVG-20010904/DTD/svg10.dtd">
<svg version="1.0" xmlns="http://www.w3.org/2000/svg"
 width="32.000000pt" height="28.000000pt" viewBox="0 0 32.000000 28.000000"
 preserveAspectRatio="xMidYMid meet">

<g transform="translate(0.000000,28.000000) scale(0.100000,-0.100000)"
fill="#000000" stroke="none">
<path d="M88 240 c-9 -6 -24 -24 -32 -42 -18 -35 -19 -39 -8 -36 12 2 42 -14
42 -23 0 -13 -34 -11 -48 3 -9 9 -12 8 -12 -4 0 -9 5 -18 12 -20 8 -3 8 -9 0
-24 -8 -14 -12 -15 -12 -4 0 13 -1 13 -10 0 -5 -8 -10 -20 -10 -26 0 -16 93
-25 102 -11 6 9 10 9 16 1 8 -12 183 -14 175 -1 -2 4 1 7 7 7 7 0 10 6 7 13
-2 6 -11 11 -21 9 -9 -2 -16 2 -16 8 0 6 -4 8 -10 5 -19 -12 -50 -14 -56 -4
-3 5 -20 7 -37 4 -74 -12 -122 -14 -107 -5 8 5 23 10 34 10 15 0 16 3 6 15
-22 27 -1 38 64 31 37 -4 56 -3 47 2 -9 7 -10 12 -2 16 19 12 12 54 -11 70
-25 18 -94 21 -120 6z m117 -45 c0 -17 -8 -20 -54 -23 -57 -3 -78 7 -67 33 4
13 18 15 63 13 50 -3 58 -6 58 -23z m0 -135 c-5 -8 -11 -8 -17 -2 -6 6 -7 16
-3 22 5 8 11 8 17 2 6 -6 7 -16 3 -22z m35 0 c0 -5 -2 -10 -4 -10 -3 0 -8 5
-11 10 -3 6 -1 10 4 10 6 0 11 -4 11 -10z"/>
<path d="M100 194 c0 -8 5 -12 10 -9 6 4 8 11 5 16 -9 14 -15 11 -15 -7z"/>
<path d="M176 201 c-4 -7 -5 -15 -2 -18 9 -9 19 4 14 18 -4 11 -6 11 -12 0z"/>
<path d="M252 126 c7 -8 17 -12 22 -9 4 3 2 9 -5 14 -22 13 -31 11 -17 -5z"/>
</g>
</svg>
